<svg width="732pt" height="423pt" viewBox="0.00 0.00 731.52 422.80" xmlns="http://www.w3.org/2000/svg" xmlns:xlink="http://www.w3.org/1999/xlink">
<g id="graph0" class="graph" transform="scale(1 1) rotate(0) translate(4 418.8)">
<title>alertmanager</title>
<polygon fill="#ffffff" stroke="transparent" points="-4,4 -4,-418.8 727.5209,-418.8 727.5209,4 -4,4"></polygon>
<g id="clust1" class="cluster">
<title>cluster_nlb</title>
<polygon fill="none" stroke="#ffa500" stroke-dasharray="5,2" points="237.3149,-62.8 237.3149,-406.8 448.0911,-406.8 448.0911,-62.8 237.3149,-62.8"></polygon>
<text text-anchor="start" x="244.9333" y="-390.2" font-family="Times,serif" font-size="14.00" fill="#000000">NLB</text>
<text text-anchor="start" x="244.9333" y="-373.4" font-family="Times,serif" font-size="14.00" fill="#000000">cross-zone load balancing disabled</text>
<text text-anchor="start" x="244.9333" y="-356.6" font-family="Times,serif" font-size="14.00" fill="#000000">Terminates TLS</text>
</g>
<!-- IP1a -->
<g id="node1" class="node">
<title>IP1a</title>
<polygon fill="none" stroke="#ff0000" points="421.9793,-340.4019 263.4266,-340.4019 263.4266,-299.1981 421.9793,-299.1981 421.9793,-340.4019"></polygon>
<text text-anchor="middle" x="342.703" y="-324" font-family="Courier,monospace" font-size="14.00" fill="#000000">Public IP</text>
<text text-anchor="middle" x="342.703" y="-307.2" font-family="Courier,monospace" font-size="14.00" fill="#000000">alerts-eu-west-1a</text>
</g>
<!-- Task1a -->
<g id="node5" class="node">
<title>Task1a</title>
<polygon fill="none" stroke="#ff0000" points="723.4091,-411.4019 564.8564,-411.4019 564.8564,-370.1981 723.4091,-370.1981 723.4091,-411.4019"></polygon>
<text text-anchor="middle" x="644.1328" y="-395" font-family="Courier,monospace" font-size="14.00" fill="#000000">Alertmanager Task</text>
<text text-anchor="middle" x="644.1328" y="-378.2" font-family="Courier,monospace" font-size="14.00" fill="#000000">eu-west-1a</text>
</g>
<!-- IP1a&#45;&gt;Task1a -->
<g id="edge4" class="edge">
<title>IP1a-&gt;Task1a</title>
<path fill="none" stroke="#000000" d="M422.2944,-338.5473C462.9868,-348.1322 512.6546,-359.8311 554.6696,-369.7275"></path>
<polygon fill="#000000" stroke="#000000" points="554.0823,-373.1849 564.6184,-372.0709 555.6872,-366.3713 554.0823,-373.1849"></polygon>
<text text-anchor="middle" x="502.4179" y="-372" font-family="Times,serif" font-size="14.00" fill="#000000">http (port 9093)</text>
</g>
<!-- IP1b -->
<g id="node2" class="node">
<title>IP1b</title>
<polygon fill="none" stroke="#ff0000" points="421.9793,-226.4019 263.4266,-226.4019 263.4266,-185.1981 421.9793,-185.1981 421.9793,-226.4019"></polygon>
<text text-anchor="middle" x="342.703" y="-210" font-family="Courier,monospace" font-size="14.00" fill="#000000">Public IP</text>
<text text-anchor="middle" x="342.703" y="-193.2" font-family="Courier,monospace" font-size="14.00" fill="#000000">alerts-eu-west-1b</text>
</g>
<!-- Task1b -->
<g id="node6" class="node">
<title>Task1b</title>
<polygon fill="none" stroke="#ff0000" points="723.4091,-226.4019 564.8564,-226.4019 564.8564,-185.1981 723.4091,-185.1981 723.4091,-226.4019"></polygon>
<text text-anchor="middle" x="644.1328" y="-210" font-family="Courier,monospace" font-size="14.00" fill="#000000">Alertmanager Task</text>
<text text-anchor="middle" x="644.1328" y="-193.2" font-family="Courier,monospace" font-size="14.00" fill="#000000">eu-west-1b</text>
</g>
<!-- IP1b&#45;&gt;Task1b -->
<g id="edge5" class="edge">
<title>IP1b-&gt;Task1b</title>
<path fill="none" stroke="#000000" d="M422.2944,-205.8C462.901,-205.8 512.4451,-205.8 554.4036,-205.8"></path>
<polygon fill="#000000" stroke="#000000" points="554.6184,-209.3001 564.6184,-205.8 554.6184,-202.3001 554.6184,-209.3001"></polygon>
<text text-anchor="middle" x="502.4179" y="-210" font-family="Times,serif" font-size="14.00" fill="#000000">http (port 9093)</text>
</g>
<!-- IP1c -->
<g id="node3" class="node">
<title>IP1c</title>
<polygon fill="none" stroke="#ff0000" points="421.9793,-112.4019 263.4266,-112.4019 263.4266,-71.1981 421.9793,-71.1981 421.9793,-112.4019"></polygon>
<text text-anchor="middle" x="342.703" y="-96" font-family="Courier,monospace" font-size="14.00" fill="#000000">Public IP</text>
<text text-anchor="middle" x="342.703" y="-79.2" font-family="Courier,monospace" font-size="14.00" fill="#000000">alerts-eu-west-1c</text>
</g>
<!-- Task1c -->
<g id="node7" class="node">
<title>Task1c</title>
<polygon fill="none" stroke="#ff0000" points="723.4091,-41.4019 564.8564,-41.4019 564.8564,-.1981 723.4091,-.1981 723.4091,-41.4019"></polygon>
<text text-anchor="middle" x="644.1328" y="-25" font-family="Courier,monospace" font-size="14.00" fill="#000000">Alertmanager Task</text>
<text text-anchor="middle" x="644.1328" y="-8.2" font-family="Courier,monospace" font-size="14.00" fill="#000000">eu-west-1c</text>
</g>
<!-- IP1c&#45;&gt;Task1c -->
<g id="edge6" class="edge">
<title>IP1c-&gt;Task1c</title>
<path fill="none" stroke="#000000" d="M422.2944,-73.0527C462.9868,-63.4678 512.6546,-51.7689 554.6696,-41.8725"></path>
<polygon fill="#000000" stroke="#000000" points="555.6872,-45.2287 564.6184,-39.5291 554.0823,-38.4151 555.6872,-45.2287"></polygon>
<text text-anchor="middle" x="502.4179" y="-67" font-family="Times,serif" font-size="14.00" fill="#000000">http (port 9093)</text>
</g>
<!-- Internet -->
<g id="node4" class="node">
<title>Internet</title>
<polygon fill="none" stroke="#ff0000" points="66.7731,-187.8493 70.5237,-187.9479 74.2355,-188.0953 77.8933,-188.2913 81.4824,-188.5353 84.9883,-188.8266 88.3972,-189.1645 91.6959,-189.5479 94.8718,-189.9759 97.9132,-190.4472 100.8089,-190.9606 103.5491,-191.5147 106.1245,-192.108 108.5271,-192.7388 110.7496,-193.4054 112.786,-194.1059 114.6312,-194.8385 116.2813,-195.6012 117.7334,-196.3918 118.9857,-197.2082 120.0372,-198.0481 120.8883,-198.9093 121.5401,-199.7894 121.9947,-200.686 122.2551,-201.5965 122.3252,-202.5186 122.2095,-203.4497 121.9134,-204.3873 121.4427,-205.3287 120.8041,-206.2713 120.0045,-207.2127 119.0512,-208.1503 117.9522,-209.0814 116.7153,-210.0035 115.3487,-210.914 113.8608,-211.8106 112.2598,-212.6907 110.554,-213.5519 108.7517,-214.3918 106.8609,-215.2082 104.8893,-215.9988 102.8444,-216.7615 100.7336,-217.4941 98.5637,-218.1946 96.3412,-218.8612 94.0722,-219.492 91.7623,-220.0853 89.4169,-220.6394 87.0406,-221.1528 84.6379,-221.6241 82.2128,-222.0521 79.7687,-222.4355 77.309,-222.7734 74.8364,-223.0647 72.3535,-223.3087 69.8625,-223.5047 67.3654,-223.6521 64.8642,-223.7507 62.3606,-223.8 59.8561,-223.8 57.3524,-223.7507 54.8512,-223.6521 52.3542,-223.5047 49.8632,-223.3087 47.3803,-223.0647 44.9077,-222.7734 42.4479,-222.4355 40.0039,-222.0521 37.5788,-221.6241 35.1761,-221.1528 32.7998,-220.6394 30.4543,-220.0853 28.1445,-219.492 25.8754,-218.8612 23.6529,-218.1946 21.483,-217.4941 19.3722,-216.7615 17.3274,-215.9988 15.3558,-215.2082 13.4649,-214.3918 11.6626,-213.5519 9.9569,-212.6907 8.3559,-211.8106 6.868,-210.914 5.5014,-210.0035 4.2645,-209.0814 3.1654,-208.1503 2.2122,-207.2127 1.4126,-206.2713 .7739,-205.3287 .3033,-204.3873 .0072,-203.4497 -.1085,-202.5186 -.0385,-201.5965 .222,-200.686 .6766,-199.7894 1.3284,-198.9093 2.1794,-198.0481 3.231,-197.2082 4.4832,-196.3918 5.9353,-195.6012 7.5855,-194.8385 9.4307,-194.1059 11.4671,-193.4054 13.6896,-192.7388 16.0921,-192.108 18.6676,-191.5147 21.4077,-190.9606 24.3035,-190.4472 27.3448,-189.9759 30.5207,-189.5479 33.8194,-189.1645 37.2284,-188.8266 40.7343,-188.5353 44.3234,-188.2913 47.9812,-188.0953 51.693,-187.9479 55.4435,-187.8493 59.2175,-187.8 62.9992,-187.8 66.7731,-187.8493"></polygon>
<text text-anchor="middle" x="61.1083" y="-201.6" font-family="Courier,monospace" font-size="14.00" fill="#000000">Internet</text>
</g>
<!-- Internet&#45;&gt;IP1a -->
<g id="edge1" class="edge">
<title>Internet-&gt;IP1a</title>
<path fill="none" stroke="#000000" d="M94.7955,-219.4378C141.0523,-238.1643 225.0034,-272.1508 282.2769,-295.3373"></path>
<polygon fill="#000000" stroke="#000000" points="281.0004,-298.5964 291.583,-299.1047 283.6272,-292.1079 281.0004,-298.5964"></polygon>
<text text-anchor="middle" x="183.7658" y="-277" font-family="Times,serif" font-size="14.00" fill="#000000">https (port 443)</text>
</g>
<!-- Internet&#45;&gt;IP1b -->
<g id="edge2" class="edge">
<title>Internet-&gt;IP1b</title>
<path fill="none" stroke="#000000" d="M122.4292,-203.4154C128.4389,-203.2461 134.4456,-203.1021 140.2167,-203 177.1692,-202.3462 217.9174,-202.7015 253.1129,-203.3474"></path>
<polygon fill="#000000" stroke="#000000" points="253.2982,-206.8516 263.3643,-203.5465 253.4342,-199.8529 253.2982,-206.8516"></polygon>
<text text-anchor="middle" x="183.7658" y="-207" font-family="Times,serif" font-size="14.00" fill="#000000">https (port 443)</text>
</g>
<!-- Internet&#45;&gt;IP1c -->
<g id="edge3" class="edge">
<title>Internet-&gt;IP1c</title>
<path fill="none" stroke="#000000" d="M92.3367,-189.5839C106.7543,-182.331 124.1942,-173.8839 140.2167,-167 183.5728,-148.3725 233.2302,-129.8879 272.5184,-115.9064"></path>
<polygon fill="#000000" stroke="#000000" points="274.0157,-119.0893 282.2734,-112.4515 271.6787,-112.4909 274.0157,-119.0893"></polygon>
<text text-anchor="middle" x="183.7658" y="-171" font-family="Times,serif" font-size="14.00" fill="#000000">https (port 443)</text>
</g>
<!-- Task1a&#45;&gt;Task1b -->
<g id="edge7" class="edge">
<title>Task1a-&gt;Task1b</title>
<path fill="none" stroke="#000000" d="M644.1328,-359.7129C644.1328,-325.6316 644.1328,-271.2598 644.1328,-237.0959"></path>
<polygon fill="#000000" stroke="#000000" points="640.6329,-360.014 644.1328,-370.014 647.6329,-360.014 640.6329,-360.014"></polygon>
<polygon fill="#000000" stroke="#000000" points="647.6329,-236.6622 644.1328,-226.6622 640.6329,-236.6623 647.6329,-236.6622"></polygon>
<text text-anchor="middle" x="632.7328" y="-294.1" font-family="Times,serif" font-size="14.00" fill="#000000">clustering (port 9094)</text>
</g>
<!-- Task1b&#45;&gt;Task1c -->
<g id="edge8" class="edge">
<title>Task1b-&gt;Task1c</title>
<path fill="none" stroke="#000000" d="M644.1328,-174.7129C644.1328,-140.6316 644.1328,-86.2598 644.1328,-52.0959"></path>
<polygon fill="#000000" stroke="#000000" points="640.6329,-175.014 644.1328,-185.014 647.6329,-175.014 640.6329,-175.014"></polygon>
<polygon fill="#000000" stroke="#000000" points="647.6329,-51.6622 644.1328,-41.6622 640.6329,-51.6623 647.6329,-51.6622"></polygon>
<text text-anchor="middle" x="632.7328" y="-109.1" font-family="Times,serif" font-size="14.00" fill="#000000">clustering (port 9094)</text>
</g>
</g>
</svg>
